<?xml version="1.0" encoding="UTF-8"?>
<svg width="452px" height="24px" viewBox="0 0 452 24" version="1.1" xmlns="http://www.w3.org/2000/svg" xmlns:xlink="http://www.w3.org/1999/xlink">
    <!-- Generator: Sketch 46.2 (44496) - http://www.bohemiancoding.com/sketch -->
    <title>sbux_ds_logo_light</title>
    <desc>Created with Sketch.</desc>
    <defs></defs>
    <g id="Page-1" stroke="none" stroke-width="1" fill="none" fill-rule="evenodd">
        <g id="Header-b" transform="translate(-4.000000, -83.000000)">
            <g id="sbux_ds_logo_light" transform="translate(0.000000, 80.000000)">
                <rect id="Rectangle-4" x="0" y="0" width="459" height="30"></rect>
                <path d="M237,25.1311112 L237,5.29480707 L242.980372,5.29480707 C246.050124,5.29480707 248.520864,6.15582228 250.392664,7.87787852 C252.442285,9.75903779 253.467081,12.2040402 253.467081,15.2129591 C253.467081,18.2218781 252.442285,20.6668805 250.392664,22.5480398 C248.511505,24.270096 246.040765,25.1311112 242.980372,25.1311112 L237,25.1311112 Z M239.779609,22.716501 L242.980372,22.716501 C245.207814,22.716501 246.96728,22.1034956 248.258822,20.8774664 C249.831135,19.3800262 250.617279,17.4895363 250.617279,15.2059399 C250.617279,12.9036256 249.831135,11.0084563 248.258822,9.52037505 C246.957921,8.29434587 245.198455,7.68134048 242.980372,7.68134048 L239.779609,7.68134048 L239.779609,22.716501 Z M258.147494,25.1311112 L258.147494,5.29480707 L269.757277,5.29480707 L269.757277,7.62518675 L260.927103,7.62518675 L260.927103,13.549405 L269.265932,13.549405 L269.265932,15.8797847 L260.927103,15.8797847 L260.927103,22.7726547 L269.981892,22.7726547 L269.981892,25.1311112 L258.147494,25.1311112 Z M273.637499,22.1409252 L275.265957,20.2738138 C275.836857,21.0412519 276.569187,21.7080708 277.462972,22.2742904 C278.356757,22.8405099 279.304341,23.1236155 280.305754,23.1236155 C281.419476,23.1236155 282.343663,22.8217922 283.078345,22.2181366 C283.813026,21.614481 284.180362,20.8025998 284.180362,19.7824687 C284.180362,19.3051596 284.075074,18.874652 283.864497,18.490933 C283.653919,18.1072139 283.333378,17.7773141 282.902864,17.5012235 C282.47235,17.225133 282.151809,17.0332763 281.941232,16.9256478 C281.730654,16.8180193 281.405434,16.6799761 280.965561,16.5115141 C279.411967,15.89382 278.359095,15.4492741 277.806914,15.1778631 C277.002039,14.812862 276.33756,14.344919 275.813456,13.7740199 C274.952428,12.8755558 274.521921,11.7244159 274.521921,10.3205657 C274.521921,8.78568944 275.125567,7.51288435 276.332878,6.5021122 C277.502753,5.52877607 279.028248,5.03743586 280.909407,5.02807686 C283.071336,5.02807686 284.966506,5.88441264 286.594972,7.59710989 L285.134975,9.49229818 C283.796638,8.06972998 282.341335,7.35845655 280.769023,7.35845655 C279.748892,7.35845655 278.918293,7.59944721 278.277201,8.08143578 C277.636109,8.56342435 277.315568,9.24428149 277.315568,10.1240276 C277.315568,10.5639007 277.38576,10.9522934 277.526145,11.2892175 C277.66653,11.6261415 277.877104,11.9139265 278.157874,12.152581 C278.438644,12.3912355 278.703032,12.5784128 278.951046,12.7141183 C279.199059,12.8498238 279.505562,12.9925464 279.870563,13.1422905 L283.520555,14.6724795 C284.475173,15.1123526 285.223882,15.6458077 285.766704,16.2728607 C286.571579,17.2649149 286.97401,18.3786193 286.97401,19.6140075 C286.97401,21.3547818 286.281454,22.7913669 284.896322,23.9238061 C283.632856,24.9626552 282.013774,25.482072 280.039024,25.482072 C279.23415,25.482072 278.473743,25.3697657 277.757779,25.1451497 C277.041815,24.9205336 276.405413,24.6023324 275.848552,24.1905363 C275.291692,23.7787402 274.870543,23.4348021 274.585094,23.1587116 C274.299644,22.882621 273.983782,22.5433623 273.637499,22.1409252 Z M291.626346,25.1311112 L291.626346,5.29480707 L294.405955,5.29480707 L294.405955,25.1311112 L291.626346,25.1311112 Z M299.086369,15.2059399 C299.086369,12.1736235 300.047992,9.71458278 301.971266,7.82874401 C303.894541,5.94290524 306.297429,5 309.180001,5 C312.380779,5 315.00594,6.10434559 317.055561,8.31306991 L317.195946,8.45345423 L315.300757,10.2082582 C313.691009,8.32709893 311.650777,7.38653341 309.180001,7.38653341 C307.092944,7.38653341 305.368574,8.0907877 304.006839,9.4993174 C302.645104,10.9078471 301.964247,12.8100356 301.964247,15.2059399 C301.964247,17.5831263 302.663822,19.4806353 304.062993,20.898524 C305.462163,22.3164127 307.223969,23.0253465 309.348462,23.0253465 C311.744367,23.0253465 313.536588,22.4918914 314.725182,21.4249652 L314.92172,21.2143887 L314.92172,16.8203596 L309.573077,16.8203596 L309.573077,14.5461336 L317.631137,14.5461336 L317.631137,22.2532327 C315.487926,24.396444 312.680267,25.472713 309.208078,25.482072 C306.334864,25.482072 303.929637,24.5321476 301.992324,22.6322704 C300.055011,20.7323931 299.086369,18.2569744 299.086369,15.2059399 Z M323.111741,25.1311112 L323.111741,5.29480707 L326.045773,5.29480707 L337.276518,20.8774664 C337.2578,19.2490002 337.248442,17.5597257 337.248442,15.8095925 L337.248442,5.29480707 L339.985936,5.29480707 L339.985936,25.1311112 L337.248442,25.1311112 L325.80712,9.323837 C325.844556,11.1020473 325.863273,12.8521543 325.863273,14.5742105 L325.863273,25.1311112 L323.111741,25.1311112 Z M351.761372,22.1409252 L353.389831,20.2738138 C353.96073,21.0412519 354.69306,21.7080708 355.586845,22.2742904 C356.48063,22.8405099 357.428214,23.1236155 358.429628,23.1236155 C359.543349,23.1236155 360.467536,22.8217922 361.202218,22.2181366 C361.936899,21.614481 362.304235,20.8025998 362.304235,19.7824687 C362.304235,19.3051596 362.198948,18.874652 361.98837,18.490933 C361.777792,18.1072139 361.457251,17.7773141 361.026737,17.5012235 C360.596223,17.225133 360.275682,17.0332763 360.065105,16.9256478 C359.854527,16.8180193 359.529307,16.6799761 359.089434,16.5115141 C357.53584,15.89382 356.482968,15.4492741 355.930787,15.1778631 C355.125913,14.812862 354.461433,14.344919 353.937329,13.7740199 C353.076301,12.8755558 352.645794,11.7244159 352.645794,10.3205657 C352.645794,8.78568944 353.24944,7.51288435 354.456751,6.5021122 C355.626626,5.52877607 357.152121,5.03743586 359.03328,5.02807686 C361.195209,5.02807686 363.090379,5.88441264 364.718845,7.59710989 L363.258848,9.49229818 C361.920511,8.06972998 360.465208,7.35845655 358.892896,7.35845655 C357.872765,7.35845655 357.042166,7.59944721 356.401074,8.08143578 C355.759983,8.56342435 355.439442,9.24428149 355.439442,10.1240276 C355.439442,10.5639007 355.509633,10.9522934 355.650018,11.2892175 C355.790403,11.6261415 356.000977,11.9139265 356.281747,12.152581 C356.562518,12.3912355 356.826905,12.5784128 357.074919,12.7141183 C357.322932,12.8498238 357.629435,12.9925464 357.994436,13.1422905 L361.644428,14.6724795 C362.599047,15.1123526 363.347755,15.6458077 363.890578,16.2728607 C364.695452,17.2649149 365.097883,18.3786193 365.097883,19.6140075 C365.097883,21.3547818 364.405327,22.7913669 363.020195,23.9238061 C361.75673,24.9626552 360.137647,25.482072 358.162897,25.482072 C357.358023,25.482072 356.597616,25.3697657 355.881652,25.1451497 C355.165689,24.9205336 354.529286,24.6023324 353.972425,24.1905363 C353.415565,23.7787402 352.994416,23.4348021 352.708967,23.1587116 C352.423517,22.882621 352.107655,22.5433623 351.761372,22.1409252 Z M367.475993,7.62518675 L367.475993,5.29480707 L381.458271,5.29480707 L381.458271,7.62518675 L375.870975,7.62518675 L375.870975,25.1311112 L373.091366,25.1311112 L373.091366,7.62518675 L367.475993,7.62518675 Z M385.155994,17.0168976 L385.155994,5.29480707 L387.977719,5.29480707 L387.977719,16.7642059 C387.977719,17.47549 387.991757,18.0370216 388.019834,18.4488177 C388.047911,18.8606137 388.129801,19.3355759 388.265507,19.8737185 C388.401212,20.4118611 388.614126,20.8587467 388.904255,21.2143887 C389.765283,22.3842639 391.038089,22.9691927 392.722709,22.9691927 C394.369893,22.9691927 395.642698,22.3842639 396.541162,21.2143887 C396.831291,20.8493877 397.044205,20.4001624 397.179911,19.8666993 C397.315616,19.3332362 397.397506,18.8559343 397.425583,18.4347792 C397.45366,18.0136242 397.467699,17.456772 397.467699,16.7642059 L397.467699,5.29480707 L400.261347,5.29480707 L400.261347,17.0168976 C400.261347,18.4207478 400.156059,19.5929452 399.945482,20.5335248 C399.734904,21.4741044 399.311416,22.3187416 398.675004,23.0674617 C397.271154,24.67721 395.287075,25.482072 392.722709,25.482072 C390.139624,25.482072 388.155546,24.67721 386.770414,23.0674617 C386.134002,22.3187416 385.705834,21.4741044 385.485897,20.5335248 C385.265961,19.5929452 385.155994,18.4207478 385.155994,17.0168976 Z M405.92445,25.1311112 L405.92445,5.29480707 L411.904822,5.29480707 C414.974574,5.29480707 417.445314,6.15582228 419.317114,7.87787852 C421.366735,9.75903779 422.391531,12.2040402 422.391531,15.2129591 C422.391531,18.2218781 421.366735,20.6668805 419.317114,22.5480398 C417.435955,24.270096 414.965215,25.1311112 411.904822,25.1311112 L405.92445,25.1311112 Z M408.70406,22.716501 L411.904822,22.716501 C414.132264,22.716501 415.89173,22.1034956 417.183272,20.8774664 C418.755585,19.3800262 419.541729,17.4895363 419.541729,15.2059399 C419.541729,12.9036256 418.755585,11.0084563 417.183272,9.52037505 C415.882371,8.29434587 414.122905,7.68134048 411.904822,7.68134048 L408.70406,7.68134048 L408.70406,22.716501 Z M427.071944,25.1311112 L427.071944,5.29480707 L429.851553,5.29480707 L429.851553,25.1311112 L427.071944,25.1311112 Z M434.531966,15.241036 C434.531966,12.1572451 435.519326,9.67948663 437.494076,7.80768636 C439.468825,5.9358861 441.89277,5 444.765983,5 C447.639197,5 450.063142,5.9358861 452.037891,7.80768636 C454.01264,9.67948663 455,12.1572451 455,15.241036 C455,18.324827 454.01264,20.8025854 452.037891,22.6743857 C450.063142,24.5461859 447.639197,25.482072 444.765983,25.482072 C441.89277,25.482072 439.468825,24.5461859 437.494076,22.6743857 C435.519326,20.8025854 434.531966,18.324827 434.531966,15.241036 Z M437.381768,15.1778631 C437.381768,17.5176134 438.090702,19.3964047 439.50859,20.8142934 C440.926479,22.2321821 442.678926,22.9411159 444.765983,22.9411159 C446.853041,22.9411159 448.605487,22.2368616 450.023376,20.8283319 C451.441265,19.4198022 452.150198,17.5363314 452.150198,15.1778631 C452.150198,12.8193947 451.441265,10.935924 450.023376,9.52739426 C448.605487,8.11886456 446.853041,7.41461027 444.765983,7.41461027 C442.678926,7.41461027 440.926479,8.11886456 439.50859,9.52739426 C438.090702,10.935924 437.381768,12.8193947 437.381768,15.1778631 Z" id="DESIGN-STUDIO" stroke="#FFFFFF" stroke-width="0.6" fill="#FFFFFF"></path>
                <path d="M13.2063164,26.7968798 C12.2943102,26.7968798 11.3982245,26.7173455 10.5180325,26.5582747 C9.63784049,26.3992039 8.78947536,26.1659034 7.97291168,25.8583665 C7.156348,25.5508295 6.3875171,25.1902743 5.66639592,24.7766901 C5.18564847,24.5009673 4.63018317,24.0480748 4,23.4180125 L6.8276073,18.5093301 C8.70109609,19.5804003 9.93123783,20.2644015 10.5180325,20.5613337 C11.3982245,21.0067321 11.9072396,20.9496841 12.8404553,20.9496841 C13.2646442,20.9496841 13.9857579,20.4871018 14.3357138,20.3386357 C14.6856696,20.1901695 14.8606449,19.9144509 14.8606449,19.5114714 C14.8606449,19.2993769 14.8023198,19.1190993 14.6856679,18.9706332 C14.5690159,18.8221671 14.3622269,18.6684009 14.0652947,18.5093301 C13.7683624,18.3502592 13.3600867,18.1752839 12.8404553,17.9843989 C12.3208238,17.7935139 11.6686431,17.570818 10.8838936,17.3163047 C10.1203536,17.0617913 9.38863864,16.7595612 8.68872691,16.4096054 C7.98881518,16.0596495 7.36844818,15.6301647 6.8276073,15.121138 C6.28676642,14.6121113 5.85728158,14.0023488 5.53913988,13.2918324 C5.22099819,12.5813159 5.06192973,11.7276485 5.06192973,10.7308045 C5.06192973,9.33098107 5.34825296,8.14326989 5.92090801,7.16763536 C6.49356306,6.19200083 7.23058026,5.39135624 8.13198173,4.76567758 C9.0333832,4.13999891 10.0461191,3.68930494 11.1702197,3.41358214 C12.2943204,3.13785933 13.4077996,3 14.5106908,3 C15.9953521,3 17.5065024,3.28632323 19.0441873,3.85897828 C20.1779033,4.28118974 21.2107268,4.84174614 22.1426741,5.54065741 C22.3640568,5.70668278 21.801673,7.43673182 20.4555226,10.7308045 C19.5405956,10.0469861 18.5346146,9.53796198 17.4375798,9.20373203 C15.7920275,8.70238711 14.8924589,8.60804211 14.3357138,8.88230082 C13.7789686,9.15655953 13.5138535,9.28326626 13.1745024,9.44233711 C12.8351512,9.60140795 12.6654782,9.86121977 12.6654782,10.2217804 C12.6654782,10.5611315 12.8404535,10.815641 13.1904094,10.9853166 C13.5403652,11.1549922 14.1077094,11.3670835 14.8924589,11.6215968 C15.6984179,11.8761102 16.546783,12.1083129 17.4375798,12.4476641 C18.3283765,12.7870152 19.4283286,13.003858 20.1812639,13.5446989 C20.9341993,14.0855398 21.6548568,14.9540191 22.1426741,15.7387686 C22.6304914,16.5235181 22.923851,17.8041137 22.923851,18.9706332 C22.923851,20.3280378 22.3676571,21.5877876 21.8268162,22.5952363 C21.2859753,23.602685 20.4334035,24.1404066 19.5532115,24.8085041 C18.6730194,25.4766017 17.6814927,25.9750162 16.5786015,26.3037626 C15.4757103,26.632509 14.3516265,26.7968798 13.2063164,26.7968798 Z M205.187414,26.7968798 C204.275407,26.7968798 203.379322,26.7173455 202.49913,26.5582747 C201.618938,26.3992039 200.770573,26.1659034 199.954009,25.8583665 C199.137445,25.5508295 198.368614,25.1902743 197.647493,24.7766901 C197.166746,24.5009673 196.61128,24.0480748 195.981097,23.4180125 L198.808705,18.5093301 C200.682193,19.5804003 201.912335,20.2644015 202.49913,20.5613337 C203.379322,21.0067321 203.888337,20.9496841 204.821553,20.9496841 C205.245741,20.9496841 205.966855,20.4871018 206.316811,20.3386357 C206.666767,20.1901695 206.841742,19.9144509 206.841742,19.5114714 C206.841742,19.2993769 206.783417,19.1190993 206.666765,18.9706332 C206.550113,18.8221671 206.343324,18.6684009 206.046392,18.5093301 C205.74946,18.3502592 205.341184,18.1752839 204.821553,17.9843989 C204.301921,17.7935139 203.64974,17.570818 202.864991,17.3163047 C202.101451,17.0617913 201.369736,16.7595612 200.669824,16.4096054 C199.969912,16.0596495 199.349545,15.6301647 198.808705,15.121138 C198.267864,14.6121113 197.838379,14.0023488 197.520237,13.2918324 C197.202095,12.5813159 197.043027,11.7276485 197.043027,10.7308045 C197.043027,9.33098107 197.32935,8.14326989 197.902005,7.16763536 C198.47466,6.19200083 199.211678,5.39135624 200.113079,4.76567758 C201.01448,4.13999891 202.027216,3.68930494 203.151317,3.41358214 C204.275418,3.13785933 205.388897,3 206.491788,3 C207.976449,3 209.4876,3.28632323 211.025285,3.85897828 C212.159001,4.28118974 213.191824,4.84174614 214.123771,5.54065741 C214.345154,5.70668278 213.78277,7.43673182 212.43662,10.7308045 C211.521693,10.0469861 210.515712,9.53796198 209.418677,9.20373203 C207.773125,8.70238711 206.873556,8.60804211 206.316811,8.88230082 C205.760066,9.15655953 205.494951,9.28326626 205.1556,9.44233711 C204.816248,9.60140795 204.646575,9.86121977 204.646575,10.2217804 C204.646575,10.5611315 204.821551,10.815641 205.171507,10.9853166 C205.521462,11.1549922 206.088807,11.3670835 206.873556,11.6215968 C207.679515,11.8761102 208.52788,12.1083129 209.418677,12.4476641 C210.309474,12.7870152 211.409426,13.003858 212.162361,13.5446989 C212.915297,14.0855398 213.635954,14.9540191 214.123771,15.7387686 C214.611589,16.5235181 214.904948,17.8041137 214.904948,18.9706332 C214.904948,20.3280378 214.348754,21.5877876 213.807913,22.5952363 C213.267073,23.602685 212.414501,24.1404066 211.534309,24.8085041 C210.654117,25.4766017 209.66259,25.9750162 208.559699,26.3037626 C207.456808,26.632509 206.332724,26.7968798 205.187414,26.7968798 Z M39.3793736,26.1605996 L31.5838439,26.1605996 L31.5838439,9.48237888 L25.4996887,9.48237888 L25.4996887,3.63628021 L45.9615827,3.63628021 L45.9615827,9.48237888 L39.3793736,9.48237888 L39.3793736,26.1605996 Z M53.6759315,3.63628021 L62.821911,3.63628021 L71.0540604,26.1605996 L62.8142317,26.1605996 L61.6371133,21.7549076 L54.478961,21.7549076 L53.3654706,26.1605996 L45.34834,26.1605996 L53.6759315,3.63628021 Z M58.1375722,9.30027109 L56.2923596,16.287286 L59.9509708,16.287286 L58.1375722,9.30027109 Z M74.4000166,3.63628021 L84.1032897,3.63628021 C85.2061809,3.63628021 86.3037533,3.74762813 87.3960398,3.97032732 C88.4883263,4.1930265 89.4952117,4.48062855 90.3541943,5.04267887 C91.2131768,5.6047292 92.4250277,6.46242008 92.9552639,7.40624044 C93.4855,8.3500608 93.7506141,9.5324697 93.7506141,10.9535026 C93.7506141,12.3321166 93.6339662,13.8485723 92.9552639,14.8984399 C92.2765616,15.9483075 91.626761,17.005841 90.3541943,17.578496 L94.9836813,26.1605996 L87.3636773,26.1605996 L83.5854893,19.2086898 L81.717239,19.2086898 L81.717239,26.1605996 L74.4000166,26.1605996 L74.4000166,3.63628021 Z M81.6536109,13.1486693 L83.1488694,13.1486693 C83.4033828,13.1486693 83.6844037,13.1274602 83.9919407,13.0850413 C84.2994777,13.0426224 84.5858009,12.9524836 84.850919,12.8146222 C85.1160371,12.6767608 85.3387329,12.4858787 85.5190132,12.24197 C85.6992935,11.9980614 85.7894323,11.6746222 85.7894323,11.2716427 C85.7894323,10.8686632 85.7152003,10.5505263 85.5667342,10.3172224 C85.4182681,10.0839185 85.2273859,9.90894318 84.994082,9.79229122 C84.7607781,9.67563927 84.5062686,9.60140732 84.2305458,9.56959315 C83.954823,9.53777898 83.7003134,9.52187213 83.4670095,9.52187213 L81.6536109,9.52187213 L81.6536109,13.1486693 Z M107.030221,9.15655953 L107.030221,12.9961815 L109.614835,12.9961815 C110.145071,12.9961815 110.579858,12.1677386 110.919209,11.9238299 C111.25856,11.6799213 111.428233,11.3034593 111.428233,10.7944325 C111.428233,10.3702436 111.247956,10.0521067 110.887395,9.84001224 C110.526835,9.62791777 110.049629,9.15655953 109.455765,9.15655953 L107.030221,9.15655953 Z M107.030221,17.1572346 L107.030221,20.759897 L109.837533,20.759897 C110.431397,20.759897 110.913905,20.62734 111.28507,20.3622219 C111.656236,20.0971038 111.841816,19.1615198 111.841816,18.6524931 C111.841816,18.3555609 111.762281,18.1116559 111.603211,17.9207709 C111.44414,17.7298859 111.247955,17.5761197 111.014651,17.4594677 C110.781347,17.3428158 110.53214,17.2632815 110.267022,17.2208626 C110.001904,17.1784438 109.752697,17.1572346 109.519393,17.1572346 L107.030221,17.1572346 Z M115.245915,14.4530437 C115.776151,14.5803004 116.295775,14.7870894 116.804801,15.0734169 C117.313828,15.3597445 117.769824,15.7202997 118.172804,16.1550933 C118.575783,16.589887 118.89392,17.0936037 119.127224,17.6662588 C119.360528,18.2389138 119.477178,18.8751877 119.477178,19.5750994 C119.477178,20.8052473 119.227971,21.8391923 118.729549,22.6769654 C118.231127,23.5147386 117.573644,24.1934307 116.75708,24.7130621 C115.940517,25.2326935 114.458797,25.6038533 113.40893,25.8265525 C112.359062,26.0492516 111.282699,26.1605996 110.179808,26.1605996 L99.9675105,26.1605996 L99.9675105,3.63628021 L109.225387,3.63628021 C110.137394,3.63628021 111.107711,3.70520987 112.136369,3.84307128 C113.165028,3.98093268 115.211171,4.25665134 116.080758,4.67023555 C116.950346,5.08381975 117.671456,5.6882799 118.244111,6.48363414 C118.816766,7.27898838 119.103089,8.32353794 119.103089,9.61731416 C119.103089,10.8262526 118.800859,11.8230816 118.19639,12.6078311 C117.591921,13.3925807 116.242759,13.9758317 115.245915,14.3576017 L115.245915,14.4530437 Z M134.435248,26.7968798 C132.674864,26.7968798 131.142504,26.5529748 129.838124,26.0651575 C128.533743,25.5773403 127.446775,24.9092527 126.577187,24.0608749 C125.7076,23.212497 125.060722,22.2103657 124.636533,21.0544509 C124.212344,19.8985361 124.000253,18.6524998 124.000253,17.3163047 L124.000253,3.63628021 L131.571987,3.63628021 L131.571987,16.4891404 C131.571987,17.5708222 131.831799,18.413885 132.35143,19.0183542 C132.871062,19.6228235 133.608079,19.9250535 134.562504,19.9250535 C135.516929,19.9250535 136.253946,19.6228235 136.773578,19.0183542 C137.293209,18.413885 137.553021,17.5708222 137.553021,16.4891404 L137.553021,3.63628021 L145.092942,3.63628021 L145.092942,17.3163047 C145.092942,18.6524998 144.864943,19.8985361 144.40894,21.0544509 C143.952937,22.2103657 143.279547,23.212497 142.388751,24.0608749 C141.497954,24.9092527 140.389777,25.5773403 139.064187,26.0651575 C137.738596,26.5529748 136.195632,26.7968798 134.435248,26.7968798 Z M149.162941,14.8984399 C149.162941,13.095637 149.481078,11.4625341 150.117361,9.99908229 C150.753644,8.53563049 151.623219,7.28429193 152.72611,6.24502906 C153.829001,5.20576619 155.12806,4.4051216 156.623326,3.84307128 C158.118592,3.28102095 159.714579,3.1228679 161.411335,3.1228679 C163.150509,3.1228679 164.538608,3.38359371 166.086898,3.94564403 C166.58882,4.12784873 167.507769,4.67636615 168.843745,5.5911963 L166.635415,11.3352707 C165.414052,10.6565728 164.591276,10.2217813 164.167087,10.0308963 C163.530803,9.74456877 162.405248,9.43081824 161.698758,9.43081824 C160.992269,9.43081824 159.864517,9.43081824 159.504689,9.70507695 C159.144861,9.97933566 158.133395,10.5278531 157.859137,11.3352707 C157.584878,12.1426884 157.307327,12.4476641 157.307327,12.9961815 C157.307327,13.5446989 157.03636,14.1561093 157.03636,14.8984399 C157.03636,15.6407705 157.063419,16.5268024 157.307327,17.1100621 C157.551236,17.6933219 157.99407,18.3314255 158.407654,18.7556144 C158.821238,19.1798033 159.501761,19.62995 160.053206,19.8526492 C160.604652,20.0753484 161.241657,20.4011667 161.856731,20.4011667 C162.726318,20.4011667 163.618569,20.4011667 164.441346,20.1269079 C164.989863,19.9440688 165.623583,19.486971 166.342506,18.7556144 L168.843745,24.6114841 C167.842271,25.2273247 167.050943,25.6535568 166.469762,25.8901805 C164.985101,26.4946497 163.298975,26.7968798 161.411335,26.7968798 C159.714579,26.7968798 157.434591,26.4628355 155.939326,25.8901805 C154.44406,25.3175254 153.476854,24.7421388 152.373962,23.6922712 C151.271071,22.6424036 150.179893,21.4982015 149.905634,19.8526492 C149.631375,18.207097 149.162941,16.6800334 149.162941,14.8984399 Z M180.974757,18.2860835 L180.911129,17.1890486 L180.911129,26.709117 L173.217624,26.709117 L173.217624,3.63628021 L180.879315,3.63628021 L180.879315,11.9397369 L185.310239,3.63628021 L194.218162,3.63628021 L186.85267,13.9440196 L194.631744,26.709117 L185.342053,26.709117 L180.974757,18.2860835 Z M218.201538,10.2535944 L217.38699,10.2535944 L217.38699,5.1441546 L215.519288,5.1441546 L215.519288,4.42833936 L220.06924,4.42833936 L220.06924,5.1441546 L218.201538,5.1441546 L218.201538,10.2535944 Z M223.85401,8.90424152 L223.870466,8.90424152 L225.590068,4.42833936 L226.857143,4.42833936 L226.857143,10.2535944 L226.042594,10.2535944 L226.042594,5.38275968 L226.026139,5.38275968 L224.092615,10.2535944 L223.574266,10.2535944 L221.64897,5.38275968 L221.632514,5.38275968 L221.632514,10.2535944 L220.842649,10.2535944 L220.842649,4.42833936 L222.109725,4.42833936 L223.85401,8.90424152 Z" id="STARBUCKS-Copy" fill="#FFFFFF"></path>
            </g>
        </g>
    </g>
</svg>