<?xml version="1.0" encoding="UTF-8"?>
<svg width="1096px" height="354px" viewBox="0 0 1096 354" version="1.1" xmlns="http://www.w3.org/2000/svg" xmlns:xlink="http://www.w3.org/1999/xlink">
    <!-- Generator: Sketch 46.2 (44496) - http://www.bohemiancoding.com/sketch -->
    <title>Group 11 Copy</title>
    <desc>Created with Sketch.</desc>
    <defs></defs>
    <g id="Page-1" stroke="none" stroke-width="1" fill="none" fill-rule="evenodd" fill-opacity="0.26" opacity="0.537024457">
        <g id="Group-11-Copy" fill="#000000">
            <path d="M383.445312,-382.445312 L542.921875,-382.445312 C526.38794,-95.6775177 522.193929,72.0364659 530.339844,120.696638 C572.414573,372.032894 600.208484,319.748014 637.535156,376.894015 C685.701823,450.635717 711.041667,562.522608 713.554687,712.554688 L383.445312,712.554687 L383.445312,-382.445312 Z" id="Rectangle-3" opacity="0.107574725" transform="translate(548.500000, 165.054688) rotate(-270.000000) translate(-548.500000, -165.054688) "></path>
            <path d="M370.867859,-370.867859 L465.023923,-370.693359 C513.208366,-300.464398 548.246448,-212.267269 570.138169,-106.101972 C619.328887,132.451548 526.140536,242.363028 596.620342,486.969469 C632.511719,611.53369 675.073819,690.64608 724.306641,724.306641 L370.867859,724.306641 L370.867859,-370.867859 Z" id="Rectangle-3-Copy" opacity="0.0875747283" transform="translate(547.587250, 176.719391) rotate(-270.000000) translate(-547.587250, -176.719391) "></path>
        </g>
    </g>
</svg>