<?xml version="1.0" encoding="UTF-8"?>
<svg width="24px" height="20px" viewBox="0 0 24 20" version="1.1" xmlns="http://www.w3.org/2000/svg" xmlns:xlink="http://www.w3.org/1999/xlink">
    <!-- Generator: Sketch 46.2 (44496) - http://www.bohemiancoding.com/sketch -->
    <title>ic_wechat_dark</title>
    <desc>Created with Sketch.</desc>
    <defs></defs>
    <g id="Page-1" stroke="none" stroke-width="1" fill="none" fill-rule="evenodd">
        <g id="ic_wechat_dark" transform="translate(-3.000000, -5.000000)" fill="#000000">
            <path d="M9,10.0055249 C9,9.70349757 8.9166675,9.46040608 8.75,9.27624309 C8.5833325,9.09208011 8.3633347,9 8.09,9 C7.8033319,9 7.5500011,9.09392171 7.33,9.28176796 C7.1099989,9.4696142 7,9.71086409 7,10.0055249 C7,10.2928191 7.1099989,10.5303858 7.33,10.718232 C7.5500011,10.9060783 7.8033319,11 8.09,11 C8.3633347,11 8.5833325,10.9097615 8.75,10.7292818 C8.9166675,10.548802 9,10.3075522 9,10.0055249 Z M19,15.9931034 C19,15.7356309 18.8957066,15.5057481 18.6871166,15.3034483 C18.4785266,15.1011484 18.2106356,15 17.8834356,15 C17.6625756,15 17.4601236,15.1034472 17.2760736,15.3103448 C17.0920236,15.5172424 17,15.7448263 17,15.9931034 C17,16.250576 17.0920236,16.4827576 17.2760736,16.6896552 C17.4601236,16.8965528 17.6625756,17 17.8834356,17 C18.2106356,17 18.4785266,16.8988516 18.6871166,16.6965517 C18.8957066,16.4942519 19,16.2597714 19,15.9931034 Z M15,10.0055249 C15,9.70349757 14.9179238,9.46040608 14.7537688,9.27624309 C14.5896139,9.09208011 14.3701856,9 14.0954774,9 C13.8073687,9 13.5527649,9.09392171 13.3316583,9.28176796 C13.1105517,9.4696142 13,9.71086409 13,10.0055249 C13,10.2928191 13.1105517,10.5303858 13.3316583,10.718232 C13.5527649,10.9060783 13.8073687,11 14.0954774,11 C14.3701856,11 14.5896139,10.9097615 14.7537688,10.7292818 C14.9179238,10.548802 15,10.3075522 15,10.0055249 Z M23,15.9931034 C23,15.7356309 22.8936616,15.5057481 22.6809816,15.3034483 C22.4683016,15.1011484 22.2024556,15 21.8834356,15 C21.6625756,15 21.4601236,15.1034472 21.2760736,15.3103448 C21.0920236,15.5172424 21,15.7448263 21,15.9931034 C21,16.250576 21.0920236,16.4827576 21.2760736,16.6896552 C21.4601236,16.8965528 21.6625756,17 21.8834356,17 C22.2024556,17 22.4683016,16.8988516 22.6809816,16.6965517 C22.8936616,16.4942519 23,16.2597714 23,15.9931034 Z M20,11.1510574 C19.7586984,11.1188317 19.4862653,11.102719 19.1826923,11.102719 C17.8672095,11.102719 16.6568279,11.4128871 15.551511,12.0332326 C14.4461941,12.6535781 13.5763539,13.4934489 12.9419643,14.5528701 C12.3075747,15.6122913 11.9903846,16.7703865 11.9903846,18.0271903 C11.9903846,18.6555923 12.0798984,19.2678721 12.2589286,19.8640483 C11.9864913,19.8882176 11.7218419,19.9003021 11.4649725,19.9003021 C11.2625906,19.9003021 11.0679954,19.8942599 10.8811813,19.8821752 C10.6943672,19.8700906 10.4803126,19.8439076 10.239011,19.8036254 C9.99770942,19.7633432 9.82451976,19.7351461 9.71943681,19.7190332 C9.61435387,19.7029204 9.40224519,19.6606247 9.0831044,19.592145 C8.76396361,19.5236653 8.56936848,19.4813697 8.49931319,19.4652568 L5.54532967,21 L6.38598901,18.3655589 C4.12865172,16.7301026 3,14.7563056 3,12.4441088 C3,11.0825712 3.37946049,9.82981438 4.13839286,8.6858006 C4.89732522,7.54178683 5.92478748,6.64149372 7.22081044,5.98489426 C8.5168334,5.3282948 9.93153995,5 11.4649725,5 C12.8349427,5 14.1290003,5.26585837 15.3471841,5.79758308 C16.5653678,6.32930779 17.5850463,7.06444647 18.40625,8.00302115 C19.2274537,8.94159583 19.7586984,9.99093076 20,11.1510574 Z M27,18.0836299 C27,18.9857696 26.7405329,19.8474158 26.2215909,20.6685943 C25.7026489,21.4897728 25.0000044,22.2357618 24.1136364,22.9065836 L24.7386364,25 L22.4772727,23.7393238 C21.3409034,24.0246159 20.5151541,24.1672598 20,24.1672598 C18.7196906,24.1672598 17.541672,23.8954654 16.4659091,23.3518683 C15.3901461,22.8082713 14.5435637,22.0699928 13.9261364,21.1370107 C13.308709,20.2040285 13,19.1862451 13,18.0836299 C13,16.9810147 13.308709,15.9632312 13.9261364,15.0302491 C14.5435637,14.097267 15.3901461,13.3589885 16.4659091,12.8153915 C17.541672,12.2717944 18.7196906,12 20,12 C21.2197031,12 22.3674189,12.2717944 23.4431818,12.8153915 C24.5189448,13.3589885 25.3806786,14.0991946 26.0284091,15.036032 C26.6761396,15.9728695 27,16.9887252 27,18.0836299 Z" id=""></path>
        </g>
    </g>
</svg>