<?xml version="1.0" encoding="UTF-8" standalone="no"?>
<svg width="26px" height="26px" viewBox="0 0 26 26" version="1.1" xmlns="http://www.w3.org/2000/svg" xmlns:xlink="http://www.w3.org/1999/xlink">
    <!-- Generator: Sketch 43.2 (39069) - http://www.bohemiancoding.com/sketch -->
    <title>icon-search</title>
    <desc>Created with Sketch.</desc>
    <defs></defs>
    <g id="Page-1" stroke="none" stroke-width="1" fill="none" fill-rule="evenodd">
        <g id="icon-search" transform="translate(-2.000000, -2.000000)">
            <rect id="Rectangle" x="0" y="0" width="30" height="30"></rect>
            <path d="M26.8433958,26.0876333 L20.1436207,19.3878583 C23.603345,15.5342182 23.4812151,9.58325724 19.7764292,5.87847137 C17.9201612,4.02220342 15.4521747,3 12.8273167,3 C10.2024586,3 7.73447208,4.02220342 5.87847137,5.87847137 C4.02220342,7.73447208 3,10.2021914 3,12.8273167 C3,15.4521747 4.02220342,17.9201612 5.87847137,19.7764292 C7.73447208,21.6326971 10.2024586,22.6549006 12.8273167,22.6549006 C15.2731221,22.6549006 17.5823664,21.7665858 19.3878583,20.1436207 L26.0876333,26.8433958 C26.1921252,26.9478877 26.3286863,27 26.4655146,27 C26.6023428,27 26.7389039,26.9478877 26.8433958,26.8433958 C27.0523796,26.6349464 27.0523796,26.2963499 26.8433958,26.0876333 Z M12.8273167,21.5859297 C10.4878739,21.5859297 8.28846625,20.6748992 6.63423379,19.0206668 C4.98000134,17.3661671 4.06870365,15.1667595 4.06870365,12.8273167 C4.06870365,10.4878739 4.97973409,8.28846625 6.63423379,6.63423379 C8.28846625,4.98000134 10.4878739,4.06870365 12.8273167,4.06870365 C15.1667595,4.06870365 17.3661671,4.97973409 19.0206668,6.63423379 C22.4354943,10.0487941 22.4354943,15.6053048 19.0206668,19.0206668 C17.3661671,20.6748992 15.1667595,21.5859297 12.8273167,21.5859297 Z" id="Shape" stroke="#000000" stroke-width="0.8" fill="#000000" fill-rule="nonzero"></path>
        </g>
    </g>
</svg>